<!-- <svg xmlns="http://www.w3.org/2000/svg" viewBox="0 0 428 389.11">
    <circle cx="214.15" cy="181" r="171" fill="none" stroke="currentColor" stroke-miterlimit="10" stroke-width="20"/><path d="M413,134.11H15.29a15,15,0,0,0-15,15v15.3C.12,168,0,171.52,0,175.11c0,118.19,95.81,214,214,214,116.4,0,211.1-92.94,213.93-208.67,0-.44.07-.88.07-1.33v-30A15,15,0,0,0,413,134.11Z"/></svg> -->

    <svg xmlns="http://www.w3.org/2000/svg" viewBox="0 0 428 389.11" width="337" height="337" fill="none"><rect x="113" y="113" width="111" height="111" rx="55.5" fill="white"/><path fill-rule="evenodd" clip-rule="evenodd" d="M23.155 112.598c-30.873 30.874-30.873 80.93 0 111.804l89.443 89.443c30.874 30.873 80.93 30.873 111.804 0l89.443-89.443c30.873-30.874 30.873-80.93 0-111.804l-89.443-89.443c-30.874-30.873-80.93-30.873-111.804 0l-89.443 89.443zm184.476 95.033c21.612-21.611 21.612-56.651 0-78.262-21.611-21.612-56.651-21.612-78.262 0-21.612 21.611-21.612 56.651 0 78.262 21.611 21.612 56.651 21.612 78.262 0z" fill="#2962FF"/></svg>